<svg width="82.000000" height="82.000000" viewBox="0 0 82 82" fill="none" xmlns="http://www.w3.org/2000/svg" xmlns:xlink="http://www.w3.org/1999/xlink">
	<desc>
			Created with Pixso.
	</desc>
	<defs/>
	<circle id="Ellipse" cx="41.000000" cy="41.000000" r="41.000000" fill="#FFFFFF" fill-opacity="1.000000"/>
	<path id="25 Nov" d="M40.0112 38.0449L40.0112 35.0786L32.6992 35.0786L35.3848 32.0269C36.0195 31.3921 36.5892 30.7899 37.0938 30.2202C37.5983 29.6424 38.0296 29.0768 38.3877 28.5234C38.7458 27.9701 39.0184 27.4126 39.2056 26.8511C39.4009 26.2896 39.4985 25.7077 39.4985 25.1055C39.4985 24.0394 39.2747 23.1279 38.8271 22.3711C38.3796 21.6143 37.7204 21.0324 36.8496 20.6255C35.9788 20.2186 34.9006 20.0151 33.6147 20.0151C32.3615 20.0151 31.2669 20.2837 30.3311 20.8208C29.3952 21.3498 28.6668 22.0618 28.146 22.957Q27.8985 23.3785 27.7294 23.8294Q27.3647 24.8019 27.3647 25.9111L31.1978 25.9111Q31.1978 25.0688 31.4785 24.4097C31.6657 23.9621 31.9342 23.6121 32.2842 23.3599C32.6341 23.1076 33.0532 22.9814 33.5415 22.9814C33.9972 22.9814 34.3838 23.0791 34.7012 23.2744C35.0186 23.4697 35.2586 23.7505 35.4214 24.1167Q35.6777 24.666 35.6777 25.4595C35.6777 25.785 35.6045 26.1431 35.458 26.5337C35.3115 26.9162 35.0755 27.3434 34.75 27.8154C34.4326 28.2874 34.0054 28.8327 33.4683 29.4512L27.731 35.5303L27.731 38.0449L40.0112 38.0449ZM42.5381 29.3169L45.5654 30.0371C45.7607 29.8011 46.0334 29.5814 46.3833 29.3779C46.7332 29.1745 47.2174 29.0728 47.8359 29.0728Q48.5439 29.0728 49.0444 29.2925C49.3862 29.4308 49.667 29.6343 49.8867 29.9028C50.1064 30.1632 50.2692 30.4806 50.375 30.855C50.4808 31.2212 50.5337 31.6362 50.5337 32.1001C50.5337 32.5477 50.493 32.9668 50.4116 33.3574C50.3302 33.748 50.2 34.0898 50.021 34.3828Q49.8928 34.6025 49.7189 34.7765Q49.5449 34.9504 49.3252 35.0786C49.0322 35.2414 48.6742 35.3228 48.251 35.3228C47.8115 35.3228 47.425 35.2332 47.0913 35.0542C46.7576 34.867 46.4932 34.6066 46.2979 34.2729C46.1025 33.9312 45.9845 33.5243 45.9438 33.0522L42.1353 33.0522Q42.1472 34.2485 42.6281 35.2104Q42.6379 35.23 42.6479 35.2495C42.9897 35.9006 43.4495 36.4539 44.0273 36.9097Q44.1451 36.9996 44.2668 37.0839Q45.0535 37.6285 46.0049 37.9351C46.7373 38.1711 47.4941 38.2891 48.2754 38.2891C49.3089 38.2891 50.2082 38.1263 50.9731 37.8008C51.7381 37.4753 52.3688 37.0358 52.8652 36.4824C53.3698 35.9209 53.7441 35.2861 53.9883 34.5781C54.2324 33.862 54.3545 33.1133 54.3545 32.332Q54.3545 30.916 53.9883 29.8052C53.7523 29.0646 53.3983 28.4421 52.9263 27.9375C52.4624 27.4248 51.8927 27.0342 51.2173 26.7656C50.5418 26.4971 49.7687 26.3628 48.8979 26.3628C48.312 26.3628 47.783 26.4442 47.311 26.6069C46.839 26.7616 46.4932 26.904 46.2734 27.0342L46.7007 23.2866L53.7563 23.2866L53.7563 20.2715L43.5757 20.2715L42.5381 29.3169ZM36.1855 61.0449L36.1855 46.8262L33.0215 46.8262L33.0215 56.0156L27.6406 46.8262L24.457 46.8262L24.457 61.0449L27.6406 61.0449L27.6406 51.8555L33.0117 61.0449L36.1855 61.0449ZM37.9434 55.6641L37.9434 55.8691Q37.9434 57.0215 38.2754 58.0078C38.4967 58.6589 38.8223 59.2285 39.252 59.7168C39.6816 60.1986 40.2122 60.5729 40.8438 60.8398C41.4753 61.1068 42.1947 61.2402 43.002 61.2402C43.8158 61.2402 44.5352 61.1068 45.1602 60.8398C45.7852 60.5729 46.3125 60.1986 46.7422 59.7168C47.1719 59.2285 47.4974 58.6589 47.7188 58.0078C47.9401 57.3503 48.0508 56.6374 48.0508 55.8691L48.0508 55.6641Q48.0508 54.502 47.7188 53.5254C47.4974 52.8678 47.1719 52.2982 46.7422 51.8164C46.3125 51.3346 45.7819 50.9603 45.1504 50.6934Q44.2129 50.2832 42.9824 50.2832C42.1751 50.2832 41.459 50.4199 40.834 50.6934C40.209 50.9603 39.6816 51.3346 39.252 51.8164C38.8223 52.2982 38.4967 52.8678 38.2754 53.5254C38.054 54.1764 37.9434 54.8893 37.9434 55.6641ZM53.5828 57.4179L51.7715 50.4785L48.5586 50.4785L52.0645 61.0449L55.1016 61.0449L58.6074 50.4785L55.4043 50.4785L53.5828 57.4179ZM41 55.8691L41 55.6641C41 55.2539 41.0326 54.8698 41.0977 54.5117C41.1693 54.1471 41.2832 53.8249 41.4395 53.5449C41.5957 53.265 41.8008 53.0469 42.0547 52.8906C42.3086 52.7344 42.6178 52.6562 42.9824 52.6562C43.36 52.6562 43.6758 52.7344 43.9297 52.8906C44.1901 53.0469 44.3984 53.265 44.5547 53.5449C44.7109 53.8249 44.8216 54.1471 44.8867 54.5117C44.9583 54.8698 44.9941 55.2539 44.9941 55.6641L44.9941 55.8691C44.9941 56.2858 44.9583 56.6764 44.8867 57.041C44.8216 57.4056 44.7109 57.7246 44.5547 57.998Q44.3856 58.2939 44.1404 58.4983Q44.0456 58.5773 43.9395 58.6426C43.6855 58.7923 43.373 58.8672 43.002 58.8672C42.6309 58.8672 42.3151 58.7923 42.0547 58.6426Q41.9485 58.5773 41.8538 58.4983Q41.6085 58.2939 41.4395 57.998C41.2832 57.7246 41.1693 57.4056 41.0977 57.041C41.0326 56.6764 41 56.2858 41 55.8691Z" fill="#274C5B" fill-opacity="1.000000" fill-rule="evenodd"/>
</svg>
